+ filenameToUse=/home/horvathandras/vatic/vatic/public/videouploads/DJI_0012_30m_szarvasragas_homokmegy_20180603_napos_napraforgo_T3.avi
+ filenameNoDot=DJI_0012_30m_szarvasragas_homokmegy_20180603_napos_napraforgo_T3
+ FullUploadPath=/home/horvathandras/vatic/vatic/public/videouploads/DJI_0012_30m_szarvasragas_homokmegy_20180603_napos_napraforgo_T3.avi
+ VideoDataDir=/home/horvathandras/vatic/vatic/videos
+ AvailableObjectTypes='PozitívROI NegatívROI Túrás ~Friss ~1-2Hetes ~Régebbi ~Egyéb1 ~Egyéb2 ~Egyéb3 Rágás ~Friss ~1-2Hetes ~Régebbi ~Egyéb1 ~Egyéb2 ~Egyéb3 Törés ~Friss ~1-2Hetes ~Régebbi ~Egyéb1 ~Egyéb2 ~Egyéb3 Taposás ~Friss ~1-2Hetes ~Régebbi ~Egyéb1 ~Egyéb2 ~Egyéb3 EgészségesNövény Egyéb1 Egyéb2 Egyéb3 Egyéb4 Egyéb5 Bizonytalan Művelőút Gktaposás Vetőhiba Széldöntés Jégkár Belvíz Aszály Erózió EgyszikűGyom KétszikűGyom EgyébNövvédelmiPR'
++ dirname /home/horvathandras/vatic/vatic/vatic_publisher.sh
+ cd /home/horvathandras/vatic/vatic
+ touch /home/horvathandras/vatic/vatic/public/videouploads/DJI_0012_30m_szarvasragas_homokmegy_20180603_napos_napraforgo_T3.avi
+ chmod 744 /home/horvathandras/vatic/vatic/public/videouploads/DJI_0012_30m_szarvasragas_homokmegy_20180603_napos_napraforgo_T3.avi
+ mkdir /home/horvathandras/vatic/vatic/videos/DJI_0012_30m_szarvasragas_homokmegy_20180603_napos_napraforgo_T3
+ turkic extract /home/horvathandras/vatic/vatic/public/videouploads/DJI_0012_30m_szarvasragas_homokmegy_20180603_napos_napraforgo_T3.avi /home/horvathandras/vatic/vatic/videos/DJI_0012_30m_szarvasragas_homokmegy_20180603_napos_napraforgo_T3 --no-resize
ffmpeg version 2.8.14-0ubuntu0.16.04.1 Copyright (c) 2000-2018 the FFmpeg developers
  built with gcc 5.4.0 (Ubuntu 5.4.0-6ubuntu1~16.04.9) 20160609
  configuration: --prefix=/usr --extra-version=0ubuntu0.16.04.1 --build-suffix=-ffmpeg --toolchain=hardened --libdir=/usr/lib/x86_64-linux-gnu --incdir=/usr/include/x86_64-linux-gnu --cc=cc --cxx=g++ --enable-gpl --enable-shared --disable-stripping --disable-decoder=libopenjpeg --disable-decoder=libschroedinger --enable-avresample --enable-avisynth --enable-gnutls --enable-ladspa --enable-libass --enable-libbluray --enable-libbs2b --enable-libcaca --enable-libcdio --enable-libflite --enable-libfontconfig --enable-libfreetype --enable-libfribidi --enable-libgme --enable-libgsm --enable-libmodplug --enable-libmp3lame --enable-libopenjpeg --enable-libopus --enable-libpulse --enable-librtmp --enable-libschroedinger --enable-libshine --enable-libsnappy --enable-libsoxr --enable-libspeex --enable-libssh --enable-libtheora --enable-libtwolame --enable-libvorbis --enable-libvpx --enable-libwavpack --enable-libwebp --enable-libx265 --enable-libxvid --enable-libzvbi --enable-openal --enable-opengl --enable-x11grab --enable-libdc1394 --enable-libiec61883 --enable-libzmq --enable-frei0r --enable-libx264 --enable-libopencv
  libavutil      54. 31.100 / 54. 31.100
  libavcodec     56. 60.100 / 56. 60.100
  libavformat    56. 40.101 / 56. 40.101
  libavdevice    56.  4.100 / 56.  4.100
  libavfilter     5. 40.101 /  5. 40.101
  libavresample   2.  1.  0 /  2.  1.  0
  libswscale      3.  1.101 /  3.  1.101
  libswresample   1.  2.101 /  1.  2.101
  libpostproc    53.  3.100 / 53.  3.100
Input #0, mov,mp4,m4a,3gp,3g2,mj2, from '/home/horvathandras/vatic/vatic/public/videouploads/DJI_0012_30m_szarvasragas_homokmegy_20180603_napos_napraforgo_T3.avi':
  Metadata:
    major_brand     : qt  
    minor_version   : 537986816
    compatible_brands: qt  
    creation_time   : 2018-06-03 07:55:41
    location        : +46.515240+19.138132+30.800
    location-{    : +46.515240+19.138132+30.800
    comment         : DE=None, Mode=P, DSW=0001
  Duration: 00:00:21.60, start: 0.000000, bitrate: 100742 kb/s
    Stream #0:0(eng): Video: h264 (High) (avc1 / 0x31637661), yuv420p(tv, bt709), 4096x2160 [SAR 1:1 DAR 256:135], 100547 kb/s, 50 fps, 50 tbr, 50k tbn, 100 tbc (default)
    Metadata:
      creation_time   : 2018-06-03 07:55:41
      handler_name    : DJI.AVC
      encoder         : AVC encoder
    Stream #0:1(eng): Data: none (priv / 0x76697270), 178 kb/s
    Metadata:
      creation_time   : 2018-06-03 07:55:41
      handler_name    : DJI.Meta
Please use -b:a or -b:v, -b is ambiguous
[swscaler @ 0x1e02180] deprecated pixel format used, make sure you did set range correctly
Output #0, image2, to '/tmp/pyvision-ffmpeg-494355815/%d.jpg':
  Metadata:
    major_brand     : qt  
    minor_version   : 537986816
    compatible_brands: qt  
    comment         : DE=None, Mode=P, DSW=0001
    location        : +46.515240+19.138132+30.800
    location-{    : +46.515240+19.138132+30.800
    encoder         : Lavf56.40.101
    Stream #0:0(eng): Video: mjpeg, yuvj420p(pc), 4096x2160 [SAR 1:1 DAR 256:135], q=2-31, 10000 kb/s, 50 fps, 50 tbn, 50 tbc (default)
    Metadata:
      creation_time   : 2018-06-03 07:55:41
      handler_name    : DJI.AVC
      encoder         : Lavc56.60.100 mjpeg
Stream mapping:
  Stream #0:0 -> #0:0 (h264 (native) -> mjpeg (native))
Press [q] to stop, [?] for help
frame=    1 fps=0.9 q=18.7 size=N/A time=00:00:00.02 bitrate=N/A    frame=    4 fps=2.3 q=24.8 size=N/A time=00:00:00.08 bitrate=N/A    frame=    8 fps=3.4 q=24.8 size=N/A time=00:00:00.16 bitrate=N/A    frame=   12 fps=4.1 q=24.8 size=N/A time=00:00:00.24 bitrate=N/A    frame=   16 fps=4.5 q=24.8 size=N/A time=00:00:00.32 bitrate=N/A    frame=   20 fps=4.8 q=24.8 size=N/A time=00:00:00.40 bitrate=N/A    frame=   24 fps=5.0 q=24.8 size=N/A time=00:00:00.48 bitrate=N/A    frame=   28 fps=5.3 q=24.8 size=N/A time=00:00:00.56 bitrate=N/A    frame=   31 fps=5.3 q=24.8 size=N/A time=00:00:00.62 bitrate=N/A    frame=   35 fps=5.4 q=24.8 size=N/A time=00:00:00.70 bitrate=N/A    frame=   39 fps=5.6 q=24.8 size=N/A time=00:00:00.78 bitrate=N/A    frame=   42 fps=5.6 q=24.8 size=N/A time=00:00:00.84 bitrate=N/A    frame=   47 fps=5.7 q=24.8 size=N/A time=00:00:00.94 bitrate=N/A    frame=   51 fps=5.7 q=24.8 size=N/A time=00:00:01.02 bitrate=N/A    frame=   54 fps=5.7 q=24.8 size=N/A time=00:00:01.08 bitrate=N/A    frame=   58 fps=5.8 q=24.8 size=N/A time=00:00:01.16 bitrate=N/A    frame=   61 fps=5.8 q=24.8 size=N/A time=00:00:01.22 bitrate=N/A    frame=   64 fps=5.8 q=24.8 size=N/A time=00:00:01.28 bitrate=N/A    frame=   68 fps=5.9 q=24.8 size=N/A time=00:00:01.36 bitrate=N/A    frame=   72 fps=5.9 q=24.8 size=N/A time=00:00:01.44 bitrate=N/A    frame=   76 fps=6.0 q=24.8 size=N/A time=00:00:01.52 bitrate=N/A    frame=   80 fps=6.0 q=24.8 size=N/A time=00:00:01.60 bitrate=N/A    frame=   84 fps=6.1 q=24.8 size=N/A time=00:00:01.68 bitrate=N/A    frame=   88 fps=6.1 q=24.8 size=N/A time=00:00:01.76 bitrate=N/A    frame=   92 fps=6.1 q=24.8 size=N/A time=00:00:01.84 bitrate=N/A    frame=   96 fps=6.1 q=24.8 size=N/A time=00:00:01.92 bitrate=N/A    frame=  100 fps=6.1 q=24.8 size=N/A time=00:00:02.00 bitrate=N/A    frame=  103 fps=6.1 q=24.8 size=N/A time=00:00:02.06 bitrate=N/A    frame=  107 fps=6.1 q=24.8 size=N/A time=00:00:02.14 bitrate=N/A    frame=  111 fps=6.1 q=24.8 size=N/A time=00:00:02.22 bitrate=N/A    frame=  115 fps=6.1 q=24.8 size=N/A time=00:00:02.30 bitrate=N/A    frame=  118 fps=6.1 q=24.8 size=N/A time=00:00:02.36 bitrate=N/A    frame=  122 fps=6.2 q=24.8 size=N/A time=00:00:02.44 bitrate=N/A    frame=  126 fps=6.2 q=24.8 size=N/A time=00:00:02.52 bitrate=N/A    frame=  130 fps=6.2 q=24.8 size=N/A time=00:00:02.60 bitrate=N/A    frame=  134 fps=6.2 q=24.8 size=N/A time=00:00:02.68 bitrate=N/A    frame=  138 fps=6.2 q=24.8 size=N/A time=00:00:02.76 bitrate=N/A    frame=  142 fps=6.2 q=24.8 size=N/A time=00:00:02.84 bitrate=N/A    frame=  146 fps=6.3 q=24.8 size=N/A time=00:00:02.92 bitrate=N/A    frame=  150 fps=6.3 q=24.8 size=N/A time=00:00:03.00 bitrate=N/A    frame=  154 fps=6.3 q=24.8 size=N/A time=00:00:03.08 bitrate=N/A    frame=  157 fps=6.3 q=24.8 size=N/A time=00:00:03.14 bitrate=N/A    frame=  161 fps=6.3 q=24.8 size=N/A time=00:00:03.22 bitrate=N/A    frame=  164 fps=6.3 q=24.8 size=N/A time=00:00:03.28 bitrate=N/A    frame=  168 fps=6.3 q=24.8 size=N/A time=00:00:03.36 bitrate=N/A    frame=  172 fps=6.3 q=24.8 size=N/A time=00:00:03.44 bitrate=N/A    frame=  175 fps=6.3 q=24.8 size=N/A time=00:00:03.50 bitrate=N/A    frame=  179 fps=6.3 q=24.8 size=N/A time=00:00:03.58 bitrate=N/A    frame=  183 fps=6.3 q=24.8 size=N/A time=00:00:03.66 bitrate=N/A    frame=  187 fps=6.3 q=24.8 size=N/A time=00:00:03.74 bitrate=N/A    frame=  190 fps=6.3 q=24.8 size=N/A time=00:00:03.80 bitrate=N/A    frame=  194 fps=6.3 q=24.8 size=N/A time=00:00:03.88 bitrate=N/A    frame=  197 fps=6.3 q=24.8 size=N/A time=00:00:03.94 bitrate=N/A    frame=  200 fps=6.3 q=24.8 size=N/A time=00:00:04.00 bitrate=N/A    frame=  203 fps=6.3 q=24.8 size=N/A time=00:00:04.06 bitrate=N/A    frame=  207 fps=6.3 q=24.8 size=N/A time=00:00:04.14 bitrate=N/A    frame=  211 fps=6.3 q=24.8 size=N/A time=00:00:04.22 bitrate=N/A    frame=  214 fps=6.3 q=24.8 size=N/A time=00:00:04.28 bitrate=N/A    frame=  218 fps=6.3 q=24.8 size=N/A time=00:00:04.36 bitrate=N/A    frame=  222 fps=6.3 q=24.8 size=N/A time=00:00:04.44 bitrate=N/A    frame=  226 fps=6.3 q=24.8 size=N/A time=00:00:04.52 bitrate=N/A    frame=  229 fps=6.3 q=24.8 size=N/A time=00:00:04.58 bitrate=N/A    frame=  233 fps=6.3 q=24.8 size=N/A time=00:00:04.66 bitrate=N/A    frame=  237 fps=6.3 q=24.8 size=N/A time=00:00:04.74 bitrate=N/A    frame=  240 fps=6.3 q=24.8 size=N/A time=00:00:04.80 bitrate=N/A    frame=  243 fps=6.3 q=24.8 size=N/A time=00:00:04.86 bitrate=N/A    frame=  247 fps=6.3 q=24.8 size=N/A time=00:00:04.94 bitrate=N/A    frame=  251 fps=6.3 q=24.8 size=N/A time=00:00:05.02 bitrate=N/A    frame=  255 fps=6.3 q=24.8 size=N/A time=00:00:05.10 bitrate=N/A    frame=  259 fps=6.3 q=24.8 size=N/A time=00:00:05.18 bitrate=N/A    frame=  263 fps=6.3 q=24.8 size=N/A time=00:00:05.26 bitrate=N/A    frame=  267 fps=6.3 q=24.8 size=N/A time=00:00:05.34 bitrate=N/A    frame=  270 fps=6.3 q=24.8 size=N/A time=00:00:05.40 bitrate=N/A    frame=  273 fps=6.3 q=24.8 size=N/A time=00:00:05.46 bitrate=N/A    frame=  276 fps=6.3 q=24.8 size=N/A time=00:00:05.52 bitrate=N/A    frame=  280 fps=6.3 q=24.8 size=N/A time=00:00:05.60 bitrate=N/A    frame=  283 fps=6.3 q=24.8 size=N/A time=00:00:05.66 bitrate=N/A    frame=  286 fps=6.3 q=24.8 size=N/A time=00:00:05.72 bitrate=N/A    frame=  290 fps=6.3 q=24.8 size=N/A time=00:00:05.80 bitrate=N/A    frame=  294 fps=6.3 q=24.8 size=N/A time=00:00:05.88 bitrate=N/A    frame=  297 fps=6.3 q=24.8 size=N/A time=00:00:05.94 bitrate=N/A    frame=  300 fps=6.3 q=24.8 size=N/A time=00:00:06.00 bitrate=N/A    frame=  304 fps=6.3 q=24.8 size=N/A time=00:00:06.08 bitrate=N/A    frame=  308 fps=6.3 q=24.8 size=N/A time=00:00:06.16 bitrate=N/A    frame=  311 fps=6.3 q=24.8 size=N/A time=00:00:06.22 bitrate=N/A    frame=  314 fps=6.3 q=24.8 size=N/A time=00:00:06.28 bitrate=N/A    frame=  317 fps=6.3 q=24.8 size=N/A time=00:00:06.34 bitrate=N/A    frame=  321 fps=6.3 q=24.8 size=N/A time=00:00:06.42 bitrate=N/A    frame=  325 fps=6.3 q=24.8 size=N/A time=00:00:06.50 bitrate=N/A    frame=  329 fps=6.3 q=24.8 size=N/A time=00:00:06.58 bitrate=N/A    frame=  332 fps=6.3 q=24.8 size=N/A time=00:00:06.64 bitrate=N/A    frame=  335 fps=6.3 q=24.8 size=N/A time=00:00:06.70 bitrate=N/A    frame=  339 fps=6.3 q=24.8 size=N/A time=00:00:06.78 bitrate=N/A    frame=  343 fps=6.3 q=24.8 size=N/A time=00:00:06.86 bitrate=N/A    frame=  347 fps=6.3 q=24.8 size=N/A time=00:00:06.94 bitrate=N/A    frame=  351 fps=6.3 q=24.8 size=N/A time=00:00:07.02 bitrate=N/A    frame=  355 fps=6.3 q=24.8 size=N/A time=00:00:07.10 bitrate=N/A    frame=  358 fps=6.3 q=24.8 size=N/A time=00:00:07.16 bitrate=N/A    frame=  361 fps=6.3 q=24.8 size=N/A time=00:00:07.22 bitrate=N/A    frame=  365 fps=6.3 q=24.8 size=N/A time=00:00:07.30 bitrate=N/A    frame=  368 fps=6.3 q=24.8 size=N/A time=00:00:07.36 bitrate=N/A    frame=  372 fps=6.3 q=24.8 size=N/A time=00:00:07.44 bitrate=N/A    frame=  375 fps=6.3 q=24.8 size=N/A time=00:00:07.50 bitrate=N/A    frame=  379 fps=6.3 q=24.8 size=N/A time=00:00:07.58 bitrate=N/A    frame=  382 fps=6.3 q=24.8 size=N/A time=00:00:07.64 bitrate=N/A    frame=  386 fps=6.3 q=24.8 size=N/A time=00:00:07.72 bitrate=N/A    frame=  389 fps=6.3 q=24.8 size=N/A time=00:00:07.78 bitrate=N/A    frame=  392 fps=6.3 q=24.8 size=N/A time=00:00:07.84 bitrate=N/A    frame=  396 fps=6.3 q=24.8 size=N/A time=00:00:07.92 bitrate=N/A    frame=  400 fps=6.3 q=24.8 size=N/A time=00:00:08.00 bitrate=N/A    frame=  404 fps=6.3 q=24.8 size=N/A time=00:00:08.08 bitrate=N/A    frame=  408 fps=6.3 q=24.8 size=N/A time=00:00:08.16 bitrate=N/A    frame=  411 fps=6.3 q=24.8 size=N/A time=00:00:08.22 bitrate=N/A    frame=  415 fps=6.3 q=24.8 size=N/A time=00:00:08.30 bitrate=N/A    frame=  418 fps=6.2 q=24.8 size=N/A time=00:00:08.36 bitrate=N/A    frame=  422 fps=6.2 q=24.8 size=N/A time=00:00:08.44 bitrate=N/A    frame=  426 fps=6.3 q=24.8 size=N/A time=00:00:08.52 bitrate=N/A    frame=  430 fps=6.3 q=24.8 size=N/A time=00:00:08.60 bitrate=N/A    frame=  433 fps=6.3 q=24.8 size=N/A time=00:00:08.66 bitrate=N/A    frame=  436 fps=6.3 q=24.8 size=N/A time=00:00:08.72 bitrate=N/A    frame=  439 fps=6.2 q=24.8 size=N/A time=00:00:08.78 bitrate=N/A    frame=  443 fps=6.3 q=24.8 size=N/A time=00:00:08.86 bitrate=N/A    frame=  446 fps=6.2 q=24.8 size=N/A time=00:00:08.92 bitrate=N/A    frame=  449 fps=6.2 q=24.8 size=N/A time=00:00:08.98 bitrate=N/A    frame=  453 fps=6.2 q=24.8 size=N/A time=00:00:09.06 bitrate=N/A    frame=  457 fps=6.2 q=24.8 size=N/A time=00:00:09.14 bitrate=N/A    frame=  461 fps=6.2 q=24.8 size=N/A time=00:00:09.22 bitrate=N/A    frame=  465 fps=6.2 q=24.8 size=N/A time=00:00:09.30 bitrate=N/A    frame=  469 fps=6.2 q=24.8 size=N/A time=00:00:09.38 bitrate=N/A    frame=  473 fps=6.2 q=24.8 size=N/A time=00:00:09.46 bitrate=N/A    frame=  477 fps=6.2 q=24.8 size=N/A time=00:00:09.54 bitrate=N/A    frame=  480 fps=6.2 q=24.8 size=N/A time=00:00:09.60 bitrate=N/A    frame=  484 fps=6.2 q=24.8 size=N/A time=00:00:09.68 bitrate=N/A    frame=  488 fps=6.2 q=24.8 size=N/A time=00:00:09.76 bitrate=N/A    frame=  493 fps=6.3 q=24.8 size=N/A time=00:00:09.86 bitrate=N/A    frame=  497 fps=6.3 q=24.8 size=N/A time=00:00:09.94 bitrate=N/A    frame=  501 fps=6.3 q=24.8 size=N/A time=00:00:10.02 bitrate=N/A    frame=  505 fps=6.3 q=24.8 size=N/A time=00:00:10.10 bitrate=N/A    frame=  509 fps=6.3 q=24.8 size=N/A time=00:00:10.18 bitrate=N/A    frame=  512 fps=6.3 q=24.8 size=N/A time=00:00:10.24 bitrate=N/A    frame=  515 fps=6.3 q=24.8 size=N/A time=00:00:10.30 bitrate=N/A    frame=  519 fps=6.3 q=24.8 size=N/A time=00:00:10.38 bitrate=N/A    frame=  523 fps=6.3 q=24.8 size=N/A time=00:00:10.46 bitrate=N/A    frame=  527 fps=6.3 q=24.8 size=N/A time=00:00:10.54 bitrate=N/A    frame=  531 fps=6.3 q=24.8 size=N/A time=00:00:10.62 bitrate=N/A    frame=  535 fps=6.3 q=24.8 size=N/A time=00:00:10.70 bitrate=N/A    frame=  538 fps=6.3 q=24.8 size=N/A time=00:00:10.76 bitrate=N/A    frame=  541 fps=6.3 q=24.8 size=N/A time=00:00:10.82 bitrate=N/A    frame=  544 fps=6.3 q=24.8 size=N/A time=00:00:10.88 bitrate=N/A    frame=  548 fps=6.3 q=24.8 size=N/A time=00:00:10.96 bitrate=N/A    frame=  552 fps=6.3 q=24.8 size=N/A time=00:00:11.04 bitrate=N/A    frame=  556 fps=6.3 q=24.8 size=N/A time=00:00:11.12 bitrate=N/A    frame=  560 fps=6.3 q=24.8 size=N/A time=00:00:11.20 bitrate=N/A    frame=  563 fps=6.3 q=24.8 size=N/A time=00:00:11.26 bitrate=N/A    frame=  567 fps=6.3 q=24.8 size=N/A time=00:00:11.34 bitrate=N/A    frame=  570 fps=6.3 q=24.8 size=N/A time=00:00:11.40 bitrate=N/A    frame=  573 fps=6.3 q=24.8 size=N/A time=00:00:11.46 bitrate=N/A    frame=  577 fps=6.3 q=24.8 size=N/A time=00:00:11.54 bitrate=N/A    frame=  581 fps=6.3 q=24.8 size=N/A time=00:00:11.62 bitrate=N/A    frame=  585 fps=6.3 q=24.8 size=N/A time=00:00:11.70 bitrate=N/A    frame=  589 fps=6.3 q=24.8 size=N/A time=00:00:11.78 bitrate=N/A    frame=  592 fps=6.3 q=24.8 size=N/A time=00:00:11.84 bitrate=N/A    frame=  597 fps=6.3 q=24.8 size=N/A time=00:00:11.94 bitrate=N/A    frame=  601 fps=6.3 q=24.8 size=N/A time=00:00:12.02 bitrate=N/A    frame=  605 fps=6.3 q=24.8 size=N/A time=00:00:12.10 bitrate=N/A    frame=  609 fps=6.3 q=24.8 size=N/A time=00:00:12.18 bitrate=N/A    frame=  613 fps=6.3 q=24.8 size=N/A time=00:00:12.26 bitrate=N/A    frame=  617 fps=6.3 q=24.8 size=N/A time=00:00:12.34 bitrate=N/A    frame=  620 fps=6.3 q=24.8 size=N/A time=00:00:12.40 bitrate=N/A    frame=  624 fps=6.3 q=24.8 size=N/A time=00:00:12.48 bitrate=N/A    frame=  627 fps=6.3 q=24.8 size=N/A time=00:00:12.54 bitrate=N/A    frame=  630 fps=6.3 q=24.8 size=N/A time=00:00:12.60 bitrate=N/A    frame=  634 fps=6.3 q=24.8 size=N/A time=00:00:12.68 bitrate=N/A    frame=  637 fps=6.3 q=24.8 size=N/A time=00:00:12.74 bitrate=N/A    frame=  641 fps=6.3 q=24.8 size=N/A time=00:00:12.82 bitrate=N/A    frame=  645 fps=6.3 q=24.8 size=N/A time=00:00:12.90 bitrate=N/A    frame=  649 fps=6.3 q=24.8 size=N/A time=00:00:12.98 bitrate=N/A    frame=  652 fps=6.3 q=24.8 size=N/A time=00:00:13.04 bitrate=N/A    frame=  656 fps=6.3 q=24.8 size=N/A time=00:00:13.12 bitrate=N/A    frame=  660 fps=6.3 q=24.8 size=N/A time=00:00:13.20 bitrate=N/A    frame=  664 fps=6.3 q=24.8 size=N/A time=00:00:13.28 bitrate=N/A    frame=  667 fps=6.3 q=24.8 size=N/A time=00:00:13.34 bitrate=N/A    frame=  671 fps=6.3 q=24.8 size=N/A time=00:00:13.42 bitrate=N/A    frame=  675 fps=6.3 q=24.8 size=N/A time=00:00:13.50 bitrate=N/A    frame=  679 fps=6.3 q=24.8 size=N/A time=00:00:13.58 bitrate=N/A    frame=  683 fps=6.3 q=24.8 size=N/A time=00:00:13.66 bitrate=N/A    frame=  687 fps=6.3 q=24.8 size=N/A time=00:00:13.74 bitrate=N/A    frame=  690 fps=6.3 q=24.8 size=N/A time=00:00:13.80 bitrate=N/A    frame=  694 fps=6.3 q=24.8 size=N/A time=00:00:13.88 bitrate=N/A    frame=  699 fps=6.3 q=24.8 size=N/A time=00:00:13.98 bitrate=N/A    frame=  703 fps=6.3 q=24.8 size=N/A time=00:00:14.06 bitrate=N/A    frame=  707 fps=6.3 q=24.8 size=N/A time=00:00:14.14 bitrate=N/A    frame=  711 fps=6.3 q=24.8 size=N/A time=00:00:14.22 bitrate=N/A    frame=  715 fps=6.3 q=24.8 size=N/A time=00:00:14.30 bitrate=N/A    frame=  719 fps=6.3 q=24.8 size=N/A time=00:00:14.38 bitrate=N/A    frame=  722 fps=6.3 q=24.8 size=N/A time=00:00:14.44 bitrate=N/A    frame=  726 fps=6.3 q=24.8 size=N/A time=00:00:14.52 bitrate=N/A    frame=  729 fps=6.3 q=24.8 size=N/A time=00:00:14.58 bitrate=N/A    frame=  733 fps=6.3 q=24.8 size=N/A time=00:00:14.66 bitrate=N/A    frame=  737 fps=6.3 q=24.8 size=N/A time=00:00:14.74 bitrate=N/A    frame=  741 fps=6.3 q=24.8 size=N/A time=00:00:14.82 bitrate=N/A    frame=  745 fps=6.3 q=24.8 size=N/A time=00:00:14.90 bitrate=N/A    frame=  749 fps=6.3 q=24.8 size=N/A time=00:00:14.98 bitrate=N/A    frame=  752 fps=6.3 q=24.8 size=N/A time=00:00:15.04 bitrate=N/A    frame=  755 fps=6.3 q=24.8 size=N/A time=00:00:15.10 bitrate=N/A    frame=  759 fps=6.3 q=24.8 size=N/A time=00:00:15.18 bitrate=N/A    frame=  763 fps=6.3 q=24.8 size=N/A time=00:00:15.26 bitrate=N/A    frame=  767 fps=6.3 q=24.8 size=N/A time=00:00:15.34 bitrate=N/A    frame=  770 fps=6.3 q=24.8 size=N/A time=00:00:15.40 bitrate=N/A    frame=  774 fps=6.3 q=24.8 size=N/A time=00:00:15.48 bitrate=N/A    frame=  778 fps=6.3 q=24.8 size=N/A time=00:00:15.56 bitrate=N/A    frame=  781 fps=6.3 q=24.8 size=N/A time=00:00:15.62 bitrate=N/A    frame=  785 fps=6.3 q=24.8 size=N/A time=00:00:15.70 bitrate=N/A    frame=  788 fps=6.3 q=24.8 size=N/A time=00:00:15.76 bitrate=N/A    frame=  792 fps=6.3 q=24.8 size=N/A time=00:00:15.84 bitrate=N/A    frame=  796 fps=6.3 q=24.8 size=N/A time=00:00:15.92 bitrate=N/A    frame=  799 fps=6.3 q=24.8 size=N/A time=00:00:15.98 bitrate=N/A    frame=  803 fps=6.3 q=24.8 size=N/A time=00:00:16.06 bitrate=N/A    frame=  806 fps=6.3 q=24.8 size=N/A time=00:00:16.12 bitrate=N/A    frame=  810 fps=6.3 q=24.8 size=N/A time=00:00:16.20 bitrate=N/A    frame=  814 fps=6.3 q=24.8 size=N/A time=00:00:16.28 bitrate=N/A    frame=  818 fps=6.3 q=24.8 size=N/A time=00:00:16.36 bitrate=N/A    frame=  821 fps=6.3 q=24.8 size=N/A time=00:00:16.42 bitrate=N/A    frame=  825 fps=6.3 q=24.8 size=N/A time=00:00:16.50 bitrate=N/A    frame=  829 fps=6.3 q=24.8 size=N/A time=00:00:16.58 bitrate=N/A    frame=  833 fps=6.3 q=24.8 size=N/A time=00:00:16.66 bitrate=N/A    frame=  837 fps=6.3 q=24.8 size=N/A time=00:00:16.74 bitrate=N/A    frame=  840 fps=6.3 q=24.8 size=N/A time=00:00:16.80 bitrate=N/A    frame=  844 fps=6.3 q=24.8 size=N/A time=00:00:16.88 bitrate=N/A    frame=  848 fps=6.3 q=24.8 size=N/A time=00:00:16.96 bitrate=N/A    frame=  852 fps=6.3 q=24.8 size=N/A time=00:00:17.04 bitrate=N/A    frame=  856 fps=6.3 q=24.8 size=N/A time=00:00:17.12 bitrate=N/A    frame=  860 fps=6.3 q=24.8 size=N/A time=00:00:17.20 bitrate=N/A    frame=  864 fps=6.3 q=24.8 size=N/A time=00:00:17.28 bitrate=N/A    frame=  867 fps=6.3 q=24.8 size=N/A time=00:00:17.34 bitrate=N/A    frame=  870 fps=6.3 q=24.8 size=N/A time=00:00:17.40 bitrate=N/A    frame=  874 fps=6.3 q=24.8 size=N/A time=00:00:17.48 bitrate=N/A    frame=  878 fps=6.3 q=24.8 size=N/A time=00:00:17.56 bitrate=N/A    frame=  881 fps=6.3 q=24.8 size=N/A time=00:00:17.62 bitrate=N/A    frame=  885 fps=6.3 q=24.8 size=N/A time=00:00:17.70 bitrate=N/A    frame=  888 fps=6.3 q=24.8 size=N/A time=00:00:17.76 bitrate=N/A    frame=  891 fps=6.3 q=24.8 size=N/A time=00:00:17.82 bitrate=N/A    frame=  894 fps=6.3 q=24.8 size=N/A time=00:00:17.88 bitrate=N/A    frame=  897 fps=6.3 q=24.8 size=N/A time=00:00:17.94 bitrate=N/A    frame=  900 fps=6.3 q=24.8 size=N/A time=00:00:18.00 bitrate=N/A    frame=  903 fps=6.3 q=24.8 size=N/A time=00:00:18.06 bitrate=N/A    frame=  906 fps=6.3 q=24.8 size=N/A time=00:00:18.12 bitrate=N/A    frame=  910 fps=6.3 q=24.8 size=N/A time=00:00:18.20 bitrate=N/A    frame=  913 fps=6.2 q=24.8 size=N/A time=00:00:18.26 bitrate=N/A    frame=  915 fps=6.2 q=24.8 size=N/A time=00:00:18.30 bitrate=N/A    frame=  917 fps=6.2 q=24.8 size=N/A time=00:00:18.34 bitrate=N/A    frame=  920 fps=6.2 q=24.8 size=N/A time=00:00:18.40 bitrate=N/A    frame=  923 fps=6.2 q=24.8 size=N/A time=00:00:18.46 bitrate=N/A    frame=  926 fps=6.2 q=24.8 size=N/A time=00:00:18.52 bitrate=N/A    frame=  929 fps=6.2 q=24.8 size=N/A time=00:00:18.58 bitrate=N/A    frame=  932 fps=6.2 q=24.8 size=N/A time=00:00:18.64 bitrate=N/A    frame=  935 fps=6.2 q=24.8 size=N/A time=00:00:18.70 bitrate=N/A    frame=  938 fps=6.2 q=24.8 size=N/A time=00:00:18.76 bitrate=N/A    frame=  940 fps=6.2 q=24.8 size=N/A time=00:00:18.80 bitrate=N/A    frame=  944 fps=6.2 q=24.8 size=N/A time=00:00:18.88 bitrate=N/A    frame=  947 fps=6.2 q=24.8 size=N/A time=00:00:18.94 bitrate=N/A    frame=  950 fps=6.2 q=24.8 size=N/A time=00:00:19.00 bitrate=N/A    frame=  953 fps=6.2 q=24.8 size=N/A time=00:00:19.06 bitrate=N/A    frame=  956 fps=6.1 q=24.8 size=N/A time=00:00:19.12 bitrate=N/A    frame=  960 fps=6.1 q=24.8 size=N/A time=00:00:19.20 bitrate=N/A    frame=  963 fps=6.1 q=24.8 size=N/A time=00:00:19.26 bitrate=N/A    frame=  966 fps=6.1 q=24.8 size=N/A time=00:00:19.32 bitrate=N/A    frame=  969 fps=6.1 q=24.8 size=N/A time=00:00:19.38 bitrate=N/A    frame=  972 fps=6.1 q=24.8 size=N/A time=00:00:19.44 bitrate=N/A    frame=  975 fps=6.1 q=24.8 size=N/A time=00:00:19.50 bitrate=N/A    frame=  978 fps=6.1 q=24.8 size=N/A time=00:00:19.56 bitrate=N/A    frame=  982 fps=6.1 q=24.8 size=N/A time=00:00:19.64 bitrate=N/A    frame=  985 fps=6.1 q=24.8 size=N/A time=00:00:19.70 bitrate=N/A    frame=  988 fps=6.1 q=24.8 size=N/A time=00:00:19.76 bitrate=N/A    frame=  991 fps=6.1 q=24.8 size=N/A time=00:00:19.82 bitrate=N/A    frame=  994 fps=6.1 q=24.8 size=N/A time=00:00:19.88 bitrate=N/A    frame=  997 fps=6.1 q=24.8 size=N/A time=00:00:19.94 bitrate=N/A    frame= 1000 fps=6.1 q=24.8 size=N/A time=00:00:20.00 bitrate=N/A    frame= 1003 fps=6.1 q=24.8 size=N/A time=00:00:20.06 bitrate=N/A    frame= 1006 fps=6.1 q=24.8 size=N/A time=00:00:20.12 bitrate=N/A    frame= 1010 fps=6.1 q=24.8 size=N/A time=00:00:20.20 bitrate=N/A    frame= 1012 fps=6.1 q=24.8 size=N/A time=00:00:20.24 bitrate=N/A    frame= 1015 fps=6.1 q=24.8 size=N/A time=00:00:20.30 bitrate=N/A    frame= 1018 fps=6.1 q=24.8 size=N/A time=00:00:20.36 bitrate=N/A    frame= 1021 fps=6.1 q=24.8 size=N/A time=00:00:20.42 bitrate=N/A    frame= 1025 fps=6.1 q=24.8 size=N/A time=00:00:20.50 bitrate=N/A    frame= 1028 fps=6.1 q=24.8 size=N/A time=00:00:20.56 bitrate=N/A    frame= 1030 fps=6.1 q=24.8 size=N/A time=00:00:20.60 bitrate=N/A    frame= 1033 fps=6.1 q=24.8 size=N/A time=00:00:20.66 bitrate=N/A    frame= 1036 fps=6.1 q=24.8 size=N/A time=00:00:20.72 bitrate=N/A    frame= 1039 fps=6.1 q=24.8 size=N/A time=00:00:20.78 bitrate=N/A    frame= 1042 fps=6.0 q=24.8 size=N/A time=00:00:20.84 bitrate=N/A    frame= 1046 fps=6.0 q=24.8 size=N/A time=00:00:20.92 bitrate=N/A    frame= 1049 fps=6.0 q=24.8 size=N/A time=00:00:20.98 bitrate=N/A    frame= 1052 fps=6.0 q=24.8 size=N/A time=00:00:21.04 bitrate=N/A    frame= 1055 fps=6.0 q=24.8 size=N/A time=00:00:21.10 bitrate=N/A    frame= 1058 fps=6.0 q=24.8 size=N/A time=00:00:21.16 bitrate=N/A    frame= 1061 fps=6.0 q=24.8 size=N/A time=00:00:21.22 bitrate=N/A    frame= 1064 fps=6.0 q=24.8 size=N/A time=00:00:21.28 bitrate=N/A    frame= 1067 fps=6.0 q=24.8 size=N/A time=00:00:21.34 bitrate=N/A    frame= 1070 fps=6.0 q=24.8 size=N/A time=00:00:21.40 bitrate=N/A    frame= 1074 fps=6.0 q=24.8 size=N/A time=00:00:21.48 bitrate=N/A    frame= 1077 fps=6.0 q=24.8 size=N/A time=00:00:21.54 bitrate=N/A    frame= 1080 fps=6.0 q=24.8 size=N/A time=00:00:21.60 bitrate=N/A    frame= 1080 fps=6.0 q=24.8 Lsize=N/A time=00:00:21.60 bitrate=N/A    
video:956571kB audio:0kB subtitle:0kB other streams:0kB global headers:0kB muxing overhead: unknown
+ turkic load DJI_0012_30m_szarvasragas_homokmegy_20180603_napos_napraforgo_T3 /home/horvathandras/vatic/vatic/videos/DJI_0012_30m_szarvasragas_homokmegy_20180603_napos_napraforgo_T3 $'Pozit\303\255vROI' $'Negat\303\255vROI' $'T\303\272r\303\241s' '~Friss' '~1-2Hetes' '~Régebbi' '~Egyéb1' '~Egyéb2' '~Egyéb3' $'R\303\241g\303\241s' '~Friss' '~1-2Hetes' '~Régebbi' '~Egyéb1' '~Egyéb2' '~Egyéb3' $'T\303\266r\303\251s' '~Friss' '~1-2Hetes' '~Régebbi' '~Egyéb1' '~Egyéb2' '~Egyéb3' $'Tapos\303\241s' '~Friss' '~1-2Hetes' '~Régebbi' '~Egyéb1' '~Egyéb2' '~Egyéb3' $'Eg\303\251szs\303\251gesN\303\266v\303\251ny' $'Egy\303\251b1' $'Egy\303\251b2' $'Egy\303\251b3' $'Egy\303\251b4' $'Egy\303\251b5' Bizonytalan $'M\305\261vel\305\221\303\272t' $'Gktapos\303\241s' $'Vet\305\221hiba' $'Sz\303\251ld\303\266nt\303\251s' $'J\303\251gk\303\241r' $'Belv\303\255z' $'Asz\303\241ly' $'Er\303\263zi\303\263' $'Egyszik\305\261Gyom' $'K\303\251tszik\305\261Gyom' $'Egy\303\251bN\303\266vv\303\251delmiPR' --offline --title '$filenameNoDot Video' --length 1000 --description 'vatic annotation'
+ turkic publish --offline
+ mkdir /home/horvathandras/vatic/vatic/public/videothumbnails/DJI_0012_30m_szarvasragas_homokmegy_20180603_napos_napraforgo_T3
+ cp /home/horvathandras/vatic/vatic/videos/DJI_0012_30m_szarvasragas_homokmegy_20180603_napos_napraforgo_T3/0/0/31.jpg /home/horvathandras/vatic/vatic/public/videothumbnails/DJI_0012_30m_szarvasragas_homokmegy_20180603_napos_napraforgo_T3/thumb.jpg
